<svg width="47" height="47" viewBox="0 0 47 47" fill="none" xmlns="http://www.w3.org/2000/svg">
<path d="M17.6251 3.91667C10.0748 3.91667 3.91675 10.0747 3.91675 17.625C3.91675 25.1753 10.0748 31.3333 17.6251 31.3333C21.0445 31.3333 24.1733 30.0558 26.5829 27.9675L27.4167 28.8013V31.3333L39.1667 43.0833L43.0834 39.1667L31.3334 27.4167H28.8014L27.9675 26.5829C30.0559 24.1732 31.3334 21.0444 31.3334 17.625C31.3334 10.0747 25.1754 3.91667 17.6251 3.91667ZM17.6251 7.83334C23.0564 7.83334 27.4167 12.1937 27.4167 17.625C27.4167 23.0563 23.0564 27.4167 17.6251 27.4167C12.1938 27.4167 7.83341 23.0563 7.83341 17.625C7.83341 12.1937 12.1938 7.83334 17.6251 7.83334Z" fill="#287DFC"/>
</svg>
